<svg width="12" height="12" viewBox="0 0 12 12" fill="none" xmlns="http://www.w3.org/2000/svg">
<path fill-rule="evenodd" clip-rule="evenodd" d="M5.99992 0.458008C6.48317 0.458008 6.87492 0.849759 6.87492 1.33301V5.12467H10.6666C11.1498 5.12467 11.5416 5.51643 11.5416 5.99967C11.5416 6.48292 11.1498 6.87467 10.6666 6.87467H6.87492V10.6663C6.87492 11.1496 6.48317 11.5413 5.99992 11.5413C5.51667 11.5413 5.12492 11.1496 5.12492 10.6663V6.87467H1.33325C0.850003 6.87467 0.458252 6.48292 0.458252 5.99967C0.458252 5.51643 0.850003 5.12467 1.33325 5.12467H5.12492V1.33301C5.12492 0.849759 5.51667 0.458008 5.99992 0.458008Z" fill="white"/>
</svg>
