<svg width="104" height="104" viewBox="0 0 104 104" fill="none" xmlns="http://www.w3.org/2000/svg">
<g filter="url(#filter0_d_347_313)">
<circle cx="52" cy="42" r="30" fill="url(#paint0_linear_347_313)"/>
</g>
<path fill-rule="evenodd" clip-rule="evenodd" d="M54.5334 35.3763C55.3751 35.7113 55.6326 36.8779 55.9767 37.2529C56.3209 37.6279 56.8134 37.7554 57.0859 37.7554C58.5342 37.7554 59.7084 38.9296 59.7084 40.3771V45.2063C59.7084 47.1479 58.1334 48.7229 56.1917 48.7229H47.8084C45.8659 48.7229 44.2917 47.1479 44.2917 45.2063V40.3771C44.2917 38.9296 45.4659 37.7554 46.9142 37.7554C47.1859 37.7554 47.6784 37.6279 48.0234 37.2529C48.3676 36.8779 48.6242 35.7113 49.4659 35.3763C50.3084 35.0412 53.6917 35.0412 54.5334 35.3763Z" stroke="white" stroke-width="1.5" stroke-linecap="round" stroke-linejoin="round"/>
<path d="M56.5794 39.9167H56.5869" stroke="white" stroke-width="2" stroke-linecap="round" stroke-linejoin="round"/>
<path fill-rule="evenodd" clip-rule="evenodd" d="M54.6489 42.9402C54.6489 41.4768 53.4631 40.291 51.9998 40.291C50.5364 40.291 49.3506 41.4768 49.3506 42.9402C49.3506 44.4035 50.5364 45.5893 51.9998 45.5893C53.4631 45.5893 54.6489 44.4035 54.6489 42.9402Z" stroke="white" stroke-width="1.5" stroke-linecap="round" stroke-linejoin="round"/>
<defs>
<filter id="filter0_d_347_313" x="0" y="0" width="104" height="104" filterUnits="userSpaceOnUse" color-interpolation-filters="sRGB">
<feFlood flood-opacity="0" result="BackgroundImageFix"/>
<feColorMatrix in="SourceAlpha" type="matrix" values="0 0 0 0 0 0 0 0 0 0 0 0 0 0 0 0 0 0 127 0" result="hardAlpha"/>
<feOffset dy="10"/>
<feGaussianBlur stdDeviation="11"/>
<feColorMatrix type="matrix" values="0 0 0 0 0.772549 0 0 0 0 0.545098 0 0 0 0 0.94902 0 0 0 0.3 0"/>
<feBlend mode="normal" in2="BackgroundImageFix" result="effect1_dropShadow_347_313"/>
<feBlend mode="normal" in="SourceGraphic" in2="effect1_dropShadow_347_313" result="shape"/>
</filter>
<linearGradient id="paint0_linear_347_313" x1="82" y1="72" x2="2.0324" y2="65.812" gradientUnits="userSpaceOnUse">
<stop stop-color="#C58BF2"/>
<stop offset="1" stop-color="#EEA4CE"/>
</linearGradient>
</defs>
</svg>
